<svg width="159" height="50" viewBox="0 0 159 50" fill="none" xmlns="http://www.w3.org/2000/svg">
<path d="M23.1231 35.9424L5.97392 26.0404V21.4502L0 24.8995V41.0786L14.0123 49.1682L28.0235 41.0786V33.1134L23.1231 35.9424Z" fill="white"/>
<path d="M23.093 0L9.08179 8.08954V24.2686L23.093 32.3582L37.1053 24.2686V8.08954L23.093 0Z" fill="white"/>
<path d="M40.2374 21.8325V26.0521L31.1755 31.2848V42.8981L25.9265 45.928L31.5612 49.1822L45.5735 41.0927V24.9124L40.2374 21.8325Z" fill="white"/>
<path d="M66.0931 20.327C66.8635 19.9296 67.7207 19.7299 68.5874 19.7461C69.6573 19.7334 70.7085 20.0278 71.6162 20.5942C72.5435 21.185 73.2862 22.0243 73.7597 23.0165C74.2833 24.0653 74.5455 25.2844 74.5463 26.6739C74.547 28.0634 74.2848 29.2867 73.7597 30.344C73.2871 31.3422 72.5461 32.1893 71.6197 32.7907C70.7143 33.3637 69.6624 33.6623 68.5909 33.6504C67.6382 33.6504 66.8068 33.4606 66.0966 33.0811C65.4176 32.7313 64.8415 32.2108 64.4248 31.5708V33.4599H60.283V15.5288H64.4166V21.8513C64.8279 21.2014 65.4071 20.6748 66.0931 20.327ZM69.4716 24.2399C69.1995 23.9529 68.8705 23.7259 68.5055 23.5737C68.1406 23.4214 67.7478 23.3472 67.3525 23.3558C66.9606 23.3502 66.5719 23.4271 66.2116 23.5814C65.8514 23.7357 65.5276 23.964 65.2612 24.2515C64.6889 24.8487 64.4023 25.6643 64.4015 26.6983C64.4008 27.7322 64.6873 28.5478 65.2612 29.145C65.5276 29.4325 65.8514 29.6608 66.2116 29.8151C66.5719 29.9694 66.9606 30.0463 67.3525 30.0407C67.7479 30.0459 68.1399 29.9677 68.5031 29.8112C68.8662 29.6546 69.1923 29.4233 69.4599 29.1322C70.0408 28.5265 70.3313 27.7071 70.3313 26.6739C70.3313 25.6406 70.0447 24.8301 69.4716 24.2422V24.2399Z" fill="white"/>
<path d="M80.8686 15.5288V33.4564H76.7314V15.5288H80.8686Z" fill="white"/>
<path d="M86.4521 32.8017C85.4061 32.249 84.5401 31.4085 83.9566 30.3793C83.3509 29.3299 83.0481 28.1026 83.0481 26.6976C83.0481 25.3097 83.3548 24.0863 83.9682 23.0275C84.5595 21.9921 85.4347 21.1476 86.4905 20.5936C87.5968 20.0182 88.8289 19.7267 90.0758 19.7455C91.3223 19.7268 92.5539 20.0183 93.6599 20.5936C94.7148 21.1479 95.5892 21.9925 96.1798 23.0275C96.7932 24.0855 97.0999 25.3089 97.0999 26.6976C97.0999 28.0864 96.7901 29.3097 96.1705 30.3677C95.5711 31.404 94.6889 32.2483 93.6273 32.8017C92.515 33.3767 91.2778 33.6681 90.0258 33.6498C88.7825 33.6697 87.5539 33.3782 86.4521 32.8017ZM92.0473 29.192C92.6034 28.6111 92.8819 27.7796 92.8826 26.6976C92.8834 25.6156 92.6123 24.7838 92.0694 24.2021C91.8181 23.9222 91.5097 23.6996 91.1649 23.5492C90.8202 23.3989 90.4472 23.3244 90.0711 23.3308C89.6938 23.3214 89.319 23.3933 88.972 23.5417C88.625 23.69 88.314 23.9113 88.06 24.1905C87.5264 24.7636 87.2599 25.5994 87.2607 26.6976C87.2607 27.782 87.5233 28.6134 88.0484 29.192C88.2935 29.4733 88.5975 29.6974 88.9388 29.8481C89.2801 29.9989 89.6504 30.0728 90.0235 30.0645C90.4032 30.0697 90.7798 29.9947 91.1285 29.8443C91.4773 29.694 91.7904 29.4717 92.0473 29.192Z" fill="white"/>
<path d="M99.3375 23.016C99.8847 21.9925 100.718 21.1508 101.737 20.5937C102.761 20.0275 103.936 19.7448 105.26 19.7456C106.957 19.7456 108.374 20.1898 109.511 21.0782C110.649 21.9666 111.396 23.2178 111.752 24.8319H107.338C106.966 23.7995 106.247 23.2829 105.182 23.2821C104.831 23.2713 104.481 23.3462 104.165 23.5002C103.848 23.6542 103.574 23.8827 103.365 24.1662C102.913 24.7564 102.687 25.6003 102.687 26.6978C102.687 27.7953 102.913 28.6391 103.365 29.2293C103.574 29.5128 103.848 29.7413 104.165 29.8953C104.481 30.0493 104.831 30.1242 105.182 30.1134C106.248 30.1134 106.967 29.5964 107.338 28.5624H111.752C111.397 30.1456 110.646 31.3891 109.5 32.2929C108.353 33.1968 106.94 33.6499 105.26 33.6522C103.936 33.6522 102.761 33.3695 101.737 32.8041C100.718 32.2471 99.8847 31.4053 99.3375 30.3818C98.7652 29.3323 98.4786 28.1051 98.4778 26.7001C98.477 25.2951 98.7636 24.0671 99.3375 23.016Z" fill="white"/>
<path d="M116.537 32.8017C115.491 32.249 114.625 31.4085 114.041 30.3793C113.436 29.3299 113.133 28.1026 113.133 26.6976C113.133 25.3097 113.44 24.0863 114.053 23.0275C114.644 21.9925 115.518 21.1479 116.573 20.5936C117.679 20.0182 118.911 19.7267 120.158 19.7455C121.405 19.7268 122.636 20.0183 123.742 20.5936C124.797 21.1479 125.672 21.9925 126.262 23.0275C126.876 24.0855 127.182 25.3089 127.182 26.6976C127.182 28.0864 126.873 29.3097 126.253 30.3677C125.653 31.404 124.771 32.2483 123.71 32.8017C122.597 33.3767 121.36 33.6681 120.108 33.6498C118.866 33.6693 117.638 33.3778 116.537 32.8017ZM122.132 29.192C122.688 28.6111 122.967 27.7796 122.967 26.6976C122.968 25.6156 122.697 24.7838 122.154 24.2021C121.903 23.9222 121.594 23.6996 121.25 23.5492C120.905 23.3989 120.532 23.3244 120.156 23.3308C119.779 23.3214 119.404 23.3933 119.057 23.5417C118.71 23.69 118.399 23.9113 118.145 24.1905C117.611 24.7636 117.345 25.5994 117.345 26.6976C117.345 27.782 117.608 28.6134 118.133 29.192C118.378 29.4733 118.682 29.6974 119.024 29.8481C119.365 29.9989 119.735 30.0728 120.108 30.0645C120.488 30.0697 120.865 29.9947 121.213 29.8443C121.562 29.694 121.875 29.4717 122.132 29.192Z" fill="white"/>
<path d="M129.35 23.0165C129.823 22.0238 130.566 21.1843 131.494 20.5942C132.401 20.0277 133.452 19.7333 134.521 19.7461C135.367 19.7354 136.204 19.9265 136.961 20.3038C137.66 20.6439 138.257 21.1615 138.692 21.8048V15.5288H142.835V33.4564H138.692V31.5185C138.291 32.1791 137.715 32.7165 137.028 33.0718C136.255 33.4726 135.393 33.6723 134.521 33.6527C133.45 33.6648 132.399 33.3662 131.494 32.793C130.565 32.1928 129.823 31.3455 129.35 30.3463C128.825 29.289 128.562 28.0657 128.562 26.6762C128.562 25.2867 128.825 24.0668 129.35 23.0165ZM137.831 24.2515C137.565 23.9636 137.242 23.735 136.881 23.5807C136.521 23.4263 136.132 23.3497 135.74 23.3558C135.349 23.3495 134.961 23.4249 134.601 23.5772C134.241 23.7294 133.917 23.9551 133.649 24.2399C133.076 24.8285 132.79 25.6399 132.789 26.6739C132.788 27.7078 133.075 28.5273 133.649 29.1322C133.913 29.4232 134.236 29.6547 134.597 29.8113C134.957 29.9679 135.347 30.0461 135.74 30.0407C136.132 30.0468 136.521 29.9702 136.881 29.8158C137.242 29.6615 137.565 29.4329 137.831 29.145C138.404 28.5478 138.69 27.7322 138.691 26.6983C138.692 25.6643 138.404 24.8487 137.828 24.2515H137.831Z" fill="white"/>
<path d="M158.502 27.6911H149.127C149.192 28.5307 149.463 29.1724 149.94 29.6162C150.415 30.0604 151.046 30.2999 151.696 30.283C152.73 30.283 153.449 29.847 153.852 28.9749H158.261C158.038 29.8557 157.62 30.6752 157.038 31.3728C156.436 32.092 155.678 32.6639 154.821 33.0446C153.883 33.4583 152.866 33.6648 151.841 33.6499C150.517 33.6499 149.338 33.3672 148.305 32.8018C147.28 32.2454 146.439 31.404 145.882 30.3795C145.301 29.33 145.011 28.1027 145.011 26.6978C145.011 25.2928 145.298 24.0655 145.871 23.016C146.42 21.9902 147.257 21.148 148.28 20.5937C149.314 20.0275 150.501 19.7448 151.841 19.7456C153.149 19.7456 154.311 20.0202 155.327 20.5693C156.331 21.1068 157.159 21.9224 157.712 22.9185C158.286 23.9362 158.573 25.1231 158.573 26.4793C158.572 26.8843 158.549 27.2889 158.502 27.6911ZM154.339 25.3896C154.339 24.6793 154.097 24.1143 153.612 23.6945C153.127 23.2747 152.522 23.0648 151.796 23.0648C151.156 23.0453 150.531 23.2606 150.039 23.6701C149.563 24.0729 149.268 24.646 149.155 25.3896H154.339Z" fill="white"/>
</svg>
