<svg width="729" height="71" viewBox="0 0 729 71" fill="none" xmlns="http://www.w3.org/2000/svg">
<path d="M62.053 45.749C59.3129 45.749 56.743 45.7209 54.1784 45.7872C53.8945 45.7872 53.4662 46.2972 53.3733 46.6465C52.9192 48.3651 52.5993 50.1194 52.1478 51.8405C51.6524 53.7376 50.2668 54.8595 48.4169 54.9946C46.9333 55.1017 45.2458 54.1761 44.7633 52.687C44.464 51.7691 44.4898 50.6905 44.6085 49.7139C44.7659 48.4237 45.1555 47.1641 45.4419 45.8892C42.7069 44.9967 41.4762 43.5408 41.7033 41.529C41.9613 39.1806 43.3623 38.2575 47.2609 37.921C47.4441 37.156 47.6402 36.335 47.8286 35.5216C48.0169 34.7082 48.1821 33.9611 48.4091 32.9718C47.4157 32.9718 46.5411 32.9922 45.6664 32.9718C43.401 32.908 41.7033 31.2634 41.6826 29.147C41.662 27.0307 43.3262 25.3529 45.6096 25.2687C46.8137 25.2245 48.0178 25.2245 49.2219 25.2687C49.9495 25.2942 50.2823 25.0698 50.432 24.3227C50.7932 22.4945 51.206 20.6714 51.704 18.8763C51.9355 17.9358 52.5247 17.1197 53.3492 16.5973C54.1737 16.075 55.1702 15.8867 56.1316 16.0715C56.6518 16.153 57.1498 16.3385 57.5949 16.6168C58.04 16.8951 58.423 17.2603 58.7204 17.69C59.0177 18.1197 59.2232 18.6048 59.3242 19.1157C59.4252 19.6266 59.4196 20.1525 59.3077 20.6612C59.0136 22.1426 58.655 23.6113 58.2937 25.233C61.0416 25.233 63.6089 25.2611 66.1761 25.1922C66.4574 25.1922 66.878 24.6823 66.9708 24.3278C67.412 22.6908 67.7449 21.0284 68.1474 19.3812C68.7486 16.8925 70.6605 15.5921 72.9362 16.1046C75.2119 16.6172 76.3575 18.6545 75.8131 21.1354C75.5241 22.4563 75.2041 23.7694 74.9023 25.0749C77.7224 26.0337 78.9273 27.4973 78.6332 29.5524C78.3029 31.8677 76.9251 32.7576 73.0858 33.0482C72.722 34.6266 72.3453 36.2508 71.9377 38.0204C73.0007 38.0204 73.896 37.9949 74.7913 38.0204C75.8094 38.0341 76.7823 38.4384 77.5045 39.1478C78.2267 39.8572 78.6416 40.8161 78.6616 41.8222C78.6755 42.8305 78.2873 43.8037 77.5809 44.5313C76.8746 45.259 75.9067 45.6827 74.8868 45.7107C73.687 45.7694 72.4821 45.7744 71.2745 45.726C70.4618 45.6928 70.049 45.8866 69.8864 46.7765C69.569 48.5232 69.1562 50.2596 68.666 51.9706C68.0622 54.0665 66.2845 55.2292 64.3391 54.9385C61.9988 54.5867 60.5694 52.5417 61.0545 50.1933C61.359 48.7679 61.6995 47.3299 62.053 45.749ZM64.9944 32.9692C62.2491 32.9692 59.687 32.9692 57.1249 32.9922C56.9716 33.0094 56.8248 33.0634 56.6975 33.1497C56.5702 33.2359 56.4663 33.3517 56.3947 33.4868C56.0155 34.9428 55.7162 36.4166 55.3627 38.0102C58.0951 38.0102 60.6597 38.0281 63.2218 37.9822C63.3895 37.9489 63.5464 37.8758 63.679 37.7692C63.8116 37.6626 63.9159 37.5256 63.983 37.3702C64.3494 35.9857 64.6332 34.5807 64.9944 32.959V32.9692Z" fill="white"/>
<path d="M21.4127 56.3029C10.9553 55.7113 2.99807 49.6019 0.670758 40.7107C-0.0222932 38.077 -0.182791 35.3341 0.198442 32.6391C0.579675 29.944 1.49517 27.3498 2.89247 25.0049C4.28976 22.66 6.14142 20.6106 8.3414 18.974C10.5414 17.3374 13.0464 16.1458 15.7131 15.4674C22.9144 13.6417 29.4783 15.0237 35.3224 19.621C37.3272 21.2019 37.7168 23.5401 36.3106 25.3123C34.9044 27.0844 32.6158 27.3521 30.6007 25.7993C26.6814 22.8058 22.37 21.7196 17.5554 23.0251C11.314 24.7309 7.12634 30.8862 7.93393 37.0491C8.74152 43.2121 14.4643 48.3041 20.8348 48.4571C24.0777 48.5764 27.2644 47.5956 29.8653 45.6778C30.7142 45.0632 31.6715 44.4513 32.6545 44.1938C34.3265 43.7628 36.0423 44.7496 36.7828 46.2846C37.1821 47.0463 37.3059 47.9201 37.1337 48.761C36.9615 49.6018 36.5035 50.3592 35.8358 50.9075C32.5649 53.7611 28.4929 55.5638 24.1606 56.076C23.0872 56.2213 22.0139 56.257 21.4127 56.3029Z" fill="white"/>
<path d="M285.031 43.9233C284.257 43.8469 283.46 43.8927 282.675 43.8927C279.424 43.8927 276.176 43.8927 272.927 43.8927C272.602 43.8927 272.515 43.9718 272.53 44.2931C272.562 45.5189 272.943 46.7109 273.629 47.7328C274.571 49.1199 275.951 49.7905 277.582 49.9052C279.739 50.0854 281.886 49.4645 283.604 48.1637C283.639 48.1395 283.676 48.1181 283.715 48.1C283.808 48.1714 283.792 48.2708 283.792 48.355C283.792 49.0485 283.792 49.7421 283.792 50.4356C283.798 50.4975 283.784 50.5595 283.754 50.6139C283.724 50.6684 283.678 50.7127 283.622 50.7416C282.142 51.6729 280.441 52.2056 278.689 52.2868C277.52 52.3352 276.349 52.3709 275.203 52.0318C272.785 51.3 271.101 49.7701 270.301 47.4166C269.269 44.4435 269.287 41.4628 270.659 38.5789C271.802 36.177 273.676 34.5961 276.356 34.1193C278.831 33.6781 281.088 34.1651 282.905 36.0036C284.025 37.1331 284.561 38.5534 284.84 40.0833C284.866 40.464 284.93 40.8414 285.028 41.2103L285.031 43.9233ZM277.29 41.5214C278.792 41.5214 280.294 41.5214 281.793 41.5214C282.022 41.5214 282.11 41.478 282.102 41.2307C282.092 40.8215 282.041 40.4143 281.953 40.0145C281.762 39.0517 281.29 38.1653 280.596 37.4646C279.048 35.9985 276.261 36.1642 274.749 37.4417C273.631 38.3851 272.878 39.6829 272.62 41.1134C272.54 41.524 272.543 41.5239 272.979 41.5239L277.29 41.5214Z" fill="white"/>
<path d="M192.349 56.4174H150.439V56.3715L175.895 51.9297C175.76 51.6989 175.594 51.4871 175.402 51.2999C171.21 46.36 167.014 41.4236 162.814 36.4905C162.745 36.4265 162.699 36.3429 162.681 36.2515C162.662 36.16 162.674 36.0653 162.713 35.9805C164.963 29.8762 167.209 23.7702 169.452 17.6626C169.47 17.6141 169.496 17.5682 169.55 17.4509C177.165 30.4619 184.765 43.4507 192.349 56.4174Z" fill="white"/>
<path d="M167.649 14.6308C167.092 15.8088 166.536 16.9877 165.982 18.1674C160.739 29.2643 155.499 40.3603 150.261 51.4555C150.224 51.5766 150.145 51.6809 150.038 51.75C149.931 51.8191 149.802 51.8484 149.675 51.8328C145.743 51.8328 141.811 51.8328 137.882 51.8328C137.479 51.8328 137.479 51.8328 137.683 51.4809C142.214 43.7278 146.744 35.9737 151.273 28.2189C151.374 28.0474 151.505 27.8947 151.66 27.7675C156.249 23.9734 160.836 20.1784 165.422 16.3825L167.597 14.5977L167.649 14.6308Z" fill="white"/>
<path d="M197.486 51.8993L198.975 48.0388C201.575 41.2988 204.174 34.5579 206.769 27.8161C206.791 27.7161 206.85 27.6279 206.935 27.5696C207.019 27.5113 207.124 27.4873 207.226 27.5025C208.015 27.5229 208.804 27.5229 209.592 27.5025C209.695 27.4882 209.799 27.5132 209.883 27.5725C209.968 27.6318 210.026 27.7208 210.046 27.8212C212.616 34.4287 215.192 41.0319 217.774 47.6309C218.29 48.944 218.79 50.2597 219.322 51.5678C219.435 51.8457 219.368 51.9018 219.087 51.8993C218.236 51.8993 217.382 51.8993 216.53 51.9222C216.443 51.9371 216.354 51.9191 216.281 51.8718C216.207 51.8245 216.154 51.7514 216.133 51.6672C215.359 49.5713 214.541 47.4804 213.756 45.3819C213.734 45.2827 213.674 45.1955 213.59 45.1378C213.505 45.0801 213.401 45.0562 213.3 45.0708C210.031 45.081 206.771 45.081 203.518 45.0708C203.412 45.0567 203.303 45.0838 203.216 45.1465C203.129 45.2092 203.07 45.3026 203.051 45.4074C202.313 47.4779 201.56 49.5432 200.825 51.6137C200.805 51.7086 200.748 51.7922 200.668 51.8473C200.587 51.9023 200.488 51.9246 200.391 51.9095C199.434 51.8891 198.484 51.8993 197.486 51.8993ZM212.655 42.4649C211.254 38.4464 209.576 34.5604 208.343 30.4985C208.265 31.0334 208.137 31.5601 207.961 32.0718C206.723 35.4257 205.483 38.7778 204.243 42.1283C204.122 42.4547 204.122 42.4598 204.501 42.4598H210.351L212.655 42.4649Z" fill="white"/>
<path d="M249.987 49.2397C249.664 49.8325 249.244 50.3684 248.743 50.8257C247.745 51.7474 246.443 52.2801 245.077 52.325C243.883 52.4168 242.685 52.2226 241.584 51.7589C239.945 51.0144 239.073 49.6757 238.627 48.0158C238.414 47.2233 238.302 46.408 238.291 45.5883C238.237 41.9803 238.25 38.3748 238.232 34.7668C238.232 34.5297 238.296 34.4634 238.536 34.4685C239.282 34.4838 240.028 34.4864 240.773 34.4685C241.031 34.4685 241.106 34.545 241.106 34.8025C241.106 38.0204 241.106 41.2383 241.106 44.4562C241.074 45.4871 241.228 46.5153 241.56 47.493C241.797 48.2034 242.255 48.8218 242.868 49.26C243.482 49.6981 244.22 49.9338 244.976 49.9332C247.508 49.9842 249.205 48.7119 249.858 46.2793C249.977 45.8436 250.037 45.3944 250.036 44.9432C250.036 41.5876 250.036 38.2346 250.036 34.879C250.036 34.6037 250.101 34.5221 250.387 34.5297C251.133 34.5527 251.878 34.5476 252.624 34.5297C252.882 34.5297 252.949 34.5884 252.947 34.8433C252.947 36.0826 252.947 37.3243 252.947 38.5661C252.947 42.9008 252.947 47.2075 252.947 51.5294C252.947 51.8634 252.851 51.9323 252.536 51.9221C251.814 51.8992 251.089 51.9068 250.364 51.9221C250.132 51.9221 250.049 51.866 250.054 51.6238C250.07 50.8384 250.054 50.0531 250.054 49.2677L249.987 49.2397Z" fill="white"/>
<path d="M230.817 36.8681H229.207C226.714 36.8681 224.222 36.8528 221.724 36.8681C221.466 36.8681 221.378 36.7941 221.381 36.5366C221.381 35.9476 221.381 35.3586 221.355 34.7696C221.355 34.5146 221.435 34.4763 221.665 34.4763C224.266 34.4763 226.865 34.4763 229.465 34.4763C231.211 34.4763 232.958 34.4763 234.707 34.4763C234.965 34.4763 235.025 34.535 235.033 34.7874C235.044 35.1115 234.94 35.4292 234.738 35.6849C231.427 40.1845 228.125 44.6892 224.833 49.199C224.774 49.2806 224.645 49.3597 224.691 49.454C224.738 49.5484 224.88 49.5076 224.98 49.5076C228.154 49.5076 231.327 49.5331 234.504 49.528C234.824 49.528 234.922 49.5994 234.904 49.9232C234.875 50.4689 234.878 51.0171 234.904 51.5627C234.919 51.8636 234.811 51.9223 234.529 51.9223C230.257 51.9223 225.984 51.9223 221.711 51.9223C221.36 51.9223 221.009 51.9223 220.656 51.9223C220.447 51.9223 220.398 51.8534 220.398 51.652C220.368 51.2552 220.493 50.8622 220.746 50.553C224.014 46.1333 227.283 41.7068 230.551 37.2735C230.623 37.1562 230.7 37.0389 230.817 36.8681Z" fill="white"/>
<path d="M261.549 37.9517C261.662 37.6967 261.758 37.4137 261.889 37.1561C262.594 35.7741 263.548 34.6573 265.148 34.2621C265.962 34.0822 266.806 34.0927 267.615 34.2927C267.654 34.295 267.692 34.3054 267.727 34.3233C267.762 34.3412 267.792 34.3661 267.816 34.3964C267.841 34.4267 267.858 34.4617 267.868 34.4992C267.878 34.5367 267.879 34.5758 267.873 34.614C267.873 35.4146 267.86 36.2127 267.873 37.0108C267.873 37.2658 267.79 37.253 267.597 37.1638C265.533 36.2025 263.489 36.891 262.436 38.8926C261.807 40.0709 261.481 41.3848 261.49 42.7173C261.49 45.6726 261.477 48.6278 261.49 51.5831C261.49 51.8585 261.422 51.9477 261.133 51.9375C260.411 51.9095 259.686 51.9018 258.961 51.9094C258.69 51.9094 258.631 51.8228 258.633 51.5678C258.633 45.9735 258.633 40.3791 258.633 34.7848C258.633 34.5579 258.677 34.4763 258.927 34.4814C259.683 34.4992 260.442 34.4967 261.198 34.4814C261.443 34.4814 261.502 34.5579 261.5 34.7874C261.5 35.7665 261.5 36.7431 261.5 37.7222C261.5 37.7987 261.5 37.8777 261.5 37.9568L261.549 37.9517Z" fill="white"/>
<path d="M369.371 71.0024H369.266C368.897 70.8622 368.51 70.7806 368.128 70.6761L354.796 67.0145C352.761 66.4553 350.726 65.8985 348.691 65.3444C348.643 65.3399 348.599 65.3166 348.568 65.2799C348.537 65.2431 348.522 65.1957 348.526 65.148C348.526 64.8778 348.48 64.6075 348.457 64.3372L348.155 61.0224C348.067 60.0569 347.981 59.0905 347.897 58.1232L347.595 54.7932C347.511 53.8344 347.424 52.8749 347.337 51.9144C347.249 50.9251 347.163 49.9357 347.079 48.9464C346.994 47.9928 346.908 47.0383 346.821 46.083L346.519 42.7376C346.431 41.7772 346.345 40.8167 346.261 39.8563C346.16 38.7522 346.057 37.6481 345.959 36.5415C345.871 35.576 345.785 34.6096 345.701 33.6424C345.59 32.4133 345.474 31.1818 345.363 29.9527C345.265 28.8529 345.168 27.7548 345.071 26.6584C344.948 25.2985 344.823 23.9386 344.697 22.5787C344.586 21.3496 344.481 20.1181 344.37 18.8865C344.256 17.6116 344.143 16.3214 344.021 15.0413C344.009 14.7428 343.977 14.4455 343.923 14.1515V13.9424C343.998 13.9424 344.073 13.9424 344.148 13.9424H394.528C394.58 13.9424 394.634 13.9424 394.685 13.9424C394.789 13.9424 394.812 13.9755 394.801 14.0749C394.697 15.2309 394.592 16.386 394.487 17.5402C394.353 19.0242 394.213 20.5082 394.079 21.9922C393.958 23.3538 393.839 24.7179 393.715 26.0719C393.558 27.816 393.395 29.5575 393.238 31.2991C393.117 32.6632 392.998 34.0248 392.874 35.3788C392.73 36.9954 392.577 38.6094 392.433 40.2235C392.288 41.8375 392.144 43.4541 391.999 45.0681C391.827 46.938 391.655 48.813 391.483 50.6931C391.349 52.1873 391.216 53.6823 391.083 55.1782C390.926 56.9197 390.764 58.6613 390.606 60.4054C390.464 61.9506 390.322 63.4983 390.193 65.046C390.178 65.2271 390.108 65.2806 389.935 65.324C387.083 66.0991 384.234 66.8794 381.387 67.6647L371.203 70.4517C370.592 70.6531 369.983 70.829 369.371 71.0024ZM369.343 24.4451H353.669C353.621 24.4477 353.574 24.4477 353.527 24.4451C353.39 24.4247 353.377 24.491 353.392 24.6032C353.418 24.8046 353.434 25.0061 353.452 25.2075C353.527 26.0235 353.599 26.8394 353.676 27.6579C353.764 28.6115 353.857 29.5652 353.934 30.5188C353.934 30.6922 353.988 30.7483 354.174 30.7483C359.335 30.7483 364.502 30.7483 369.676 30.7483H378.074C378.115 30.7508 378.157 30.7508 378.198 30.7483C378.283 30.7483 378.304 30.7712 378.294 30.8579C378.247 31.3526 378.206 31.8473 378.162 32.3419C378.025 33.8897 377.883 35.4349 377.749 36.9826C377.734 37.1433 377.692 37.1994 377.512 37.1994C372.03 37.1994 366.547 37.1994 361.063 37.1994H354.768C354.727 37.2019 354.687 37.2019 354.646 37.1994C354.548 37.1994 354.525 37.2351 354.535 37.3218C354.553 37.5002 354.569 37.6787 354.584 37.8572C354.672 38.8278 354.758 39.7993 354.842 40.7717C354.922 41.6208 355.002 42.4724 355.072 43.3215C355.072 43.4643 355.134 43.4949 355.273 43.4949C360.002 43.4949 364.732 43.4949 369.464 43.4949H376.97C377.122 43.4949 377.171 43.523 377.156 43.6836C377.053 44.7571 376.96 45.8331 376.862 46.9091C376.725 48.439 376.583 49.9689 376.449 51.4988C376.452 51.5466 376.437 51.5939 376.407 51.631C376.376 51.668 376.332 51.6919 376.284 51.6977C375.708 51.8456 375.135 52.0011 374.56 52.1567L369.477 53.5132C369.389 53.5438 369.294 53.5492 369.204 53.5285C366.919 52.9165 364.634 52.3062 362.348 51.6977C362.308 51.6944 362.271 51.6758 362.245 51.6457C362.219 51.6156 362.206 51.5766 362.209 51.537C362.069 49.9562 361.925 48.3753 361.788 46.7944C361.788 46.6771 361.744 46.6363 361.621 46.6363H355.518C355.395 46.6363 355.379 46.6745 355.389 46.7867C355.493 47.8678 355.592 48.949 355.689 50.0301C355.773 51.0007 355.859 51.9722 355.947 52.9446C356.047 54.0767 356.153 55.2088 356.249 56.3435C356.246 56.3991 356.264 56.4538 356.3 56.4968C356.335 56.5398 356.386 56.5679 356.442 56.5755C360.696 57.7382 364.95 58.9044 369.204 60.0739C369.281 60.0968 369.364 60.0968 369.441 60.0739C373.678 58.9112 377.915 57.7518 382.154 56.5959C382.357 56.5424 382.412 56.448 382.412 56.267C382.466 55.5556 382.53 54.8416 382.595 54.1277C382.695 53.0313 382.799 51.9323 382.897 50.8333C382.995 49.7343 383.093 48.6379 383.191 47.5389C383.302 46.3074 383.418 45.0783 383.529 43.8468C383.627 42.7503 383.724 41.6522 383.82 40.5524C383.944 39.2061 384.069 37.8606 384.194 36.516C384.318 35.1544 384.434 33.7902 384.558 32.4363C384.682 31.0823 384.816 29.7233 384.93 28.3565C385.04 27.1275 385.149 25.8977 385.257 24.6669C385.278 24.44 385.281 24.44 385.046 24.44H369.333L369.343 24.4451Z" fill="white"/>
<path d="M368.992 9.70975C367.766 9.70975 366.538 9.70975 365.31 9.70975C365.171 9.70975 365.14 9.67152 365.14 9.53638C365.14 8.68644 365.14 7.83649 365.14 6.98655C365.14 6.83611 365.168 6.78511 365.336 6.78766C366.709 6.78766 368.081 6.78766 369.464 6.78766C369.609 6.78766 369.647 6.75452 369.645 6.60918C369.632 6.22926 369.645 6.22926 369.253 6.22926C367.95 6.22926 366.647 6.22926 365.341 6.22926C365.199 6.22926 365.145 6.20884 365.148 6.04565C365.148 4.08228 365.148 2.11806 365.148 0.152996C365.148 0.0204053 365.181 -0.0178223 365.32 -0.0178223C367.78 -0.0178223 370.241 -0.0178223 372.702 -0.0178223C372.844 -0.0178223 372.87 0.0255074 372.87 0.155549C372.87 0.962995 372.87 1.77129 372.87 2.58044C372.87 2.72068 372.844 2.76402 372.692 2.76402C371.314 2.76402 369.934 2.76402 368.564 2.76402C368.417 2.76402 368.378 2.79463 368.383 2.93997C368.383 3.32245 368.383 3.32245 368.773 3.32245C370.063 3.32245 371.381 3.32245 372.684 3.32245C372.826 3.32245 372.88 3.34029 372.88 3.50348C372.88 5.51274 372.88 7.52286 372.88 9.53383C372.88 9.66642 372.852 9.70723 372.71 9.70723C371.461 9.70723 370.225 9.70975 368.992 9.70975Z" fill="white"/>
<path d="M378.263 9.7098C377.029 9.7098 375.796 9.7098 374.563 9.7098C374.431 9.7098 374.397 9.67668 374.4 9.54664C374.4 8.6814 374.4 7.81529 374.4 6.94835C374.4 6.81066 374.444 6.79026 374.568 6.79026C375.953 6.79026 377.339 6.79026 378.724 6.79026C378.859 6.79026 378.9 6.76476 378.897 6.62452C378.897 6.23439 378.897 6.23439 378.5 6.23439C377.189 6.23439 375.881 6.23439 374.57 6.23439C374.428 6.23439 374.403 6.19361 374.403 6.06102C374.403 4.09255 374.403 2.12237 374.403 0.150497C374.403 0.0255559 374.426 -0.0126953 374.563 -0.0126953C377.029 -0.0126953 379.496 -0.0126953 381.963 -0.0126953C382.097 -0.0126953 382.125 0.023006 382.125 0.150497C382.125 0.971542 382.125 1.79004 382.125 2.61109C382.125 2.74878 382.081 2.76662 381.957 2.76662C380.572 2.76662 379.186 2.76662 377.801 2.76662C377.669 2.76662 377.625 2.79468 377.628 2.93237C377.628 3.32504 377.628 3.32505 378.028 3.32505C379.336 3.32505 380.647 3.32505 381.955 3.32505C382.097 3.32505 382.125 3.36583 382.125 3.49842C382.125 5.50769 382.125 7.51781 382.125 9.52878C382.125 9.69452 382.073 9.71236 381.929 9.71236C380.706 9.70726 379.483 9.7098 378.263 9.7098Z" fill="white"/>
<path d="M355.885 4.78093C355.885 3.25103 355.885 1.70585 355.885 0.17085C355.885 0.033159 355.918 0 356.055 0C358.517 0 360.977 0 363.437 0C363.581 0 363.607 0.0433608 363.607 0.173402C363.607 1.11429 363.607 2.05517 363.607 2.9986C363.607 3.14904 363.579 3.1975 363.411 3.1975C362.039 3.1975 360.666 3.1975 359.283 3.1975C359.141 3.1975 359.102 3.22553 359.102 3.37342C359.102 4.32706 359.102 5.27986 359.102 6.2318C359.102 6.36184 359.133 6.39499 359.265 6.39244C360.65 6.39244 362.036 6.39244 363.419 6.39244C363.569 6.39244 363.6 6.42812 363.6 6.57092C363.6 7.51945 363.6 8.46545 363.6 9.41398C363.6 9.53892 363.581 9.5899 363.434 9.58735C360.973 9.58735 358.512 9.58735 356.053 9.58735C355.895 9.58735 355.88 9.53381 355.88 9.40122C355.887 7.85347 355.885 6.31593 355.885 4.78093Z" fill="white"/>
<path d="M683.398 7.53979H685.774C685.821 7.59334 685.891 7.58824 685.955 7.60099C686.771 7.7472 687.571 7.97265 688.342 8.27412C690.05 8.96972 691.66 9.87988 693.133 10.9821C694.5 11.9744 695.793 13.0616 697.003 14.2356C697.233 14.4575 697.202 14.4371 697.419 14.2356C697.979 13.7104 698.549 13.1953 699.132 12.7057C700.665 11.3667 702.338 10.1923 704.122 9.20226C705.442 8.45986 706.873 7.92969 708.361 7.63159C708.47 7.61119 708.591 7.63157 708.686 7.55253H711.063C711.109 7.60862 711.179 7.60352 711.243 7.61627C712.003 7.76342 712.727 8.05246 713.377 8.46791C714.535 9.23966 715.423 10.3469 715.919 11.6374C716.498 13.1257 716.805 14.704 716.824 16.2985C716.854 17.4157 716.804 18.5336 716.675 19.6438C716.55 20.8085 716.364 21.966 716.117 23.1116C715.999 23.6777 715.859 24.2386 715.73 24.7996C715.699 24.9296 715.73 24.9934 715.857 25.024C715.929 25.0418 716.001 25.0699 716.073 25.0903C717.65 25.5363 719.195 26.0831 720.7 26.7273C722.228 27.3658 723.681 28.1705 725.029 29.1266C726.301 30.0522 727.424 31.1155 728.192 32.5C728.622 33.2158 728.879 34.0191 728.946 34.8485C728.944 34.8761 728.947 34.9039 728.956 34.9301C728.965 34.9564 728.979 34.9807 728.997 35.0014V36.0214C728.894 36.1999 728.951 36.4039 728.915 36.5951C728.715 37.5946 728.293 38.5378 727.679 39.3565C726.766 40.5597 725.638 41.5873 724.351 42.3883C722.968 43.2787 721.499 44.0296 719.964 44.6296C718.654 45.1541 717.316 45.6095 715.957 45.9938C715.699 46.0677 715.699 46.0702 715.756 46.3405C716.066 47.5874 716.324 48.8445 716.515 50.1168C716.676 51.1652 716.779 52.2216 716.822 53.2812C716.881 54.5193 716.809 55.7601 716.607 56.9835C716.419 58.2494 715.985 59.4675 715.33 60.5711C714.678 61.6625 713.695 62.524 712.52 63.0343C712.033 63.2344 711.527 63.3848 711.009 63.483H709.027C708.886 63.4856 708.746 63.478 708.606 63.4601C707.788 63.3229 706.986 63.1051 706.212 62.8099C704.539 62.1463 702.96 61.2722 701.513 60.2091C700.077 59.1823 698.719 58.0513 697.452 56.8254C697.223 56.6061 697.225 56.6112 696.985 56.8254C696.443 57.3354 695.896 57.8275 695.334 58.3094C693.953 59.5097 692.464 60.5834 690.886 61.5171C689.676 62.2425 688.375 62.8067 687.016 63.1949C686.357 63.393 685.671 63.4894 684.982 63.4805C684.466 63.4601 683.966 63.4805 683.455 63.4805C683.375 63.4601 683.292 63.4346 683.21 63.4193C681.241 63.0394 679.84 61.9098 678.896 60.1988C678.055 58.6689 677.735 57.0141 677.642 55.3108C677.565 53.9053 677.613 52.4957 677.786 51.0985C677.944 49.8236 678.166 48.5793 678.442 47.3324C678.516 46.9856 678.609 46.644 678.7 46.3125C678.749 46.1008 678.731 46.0779 678.527 46.0116C678.375 45.9631 678.22 45.9198 678.068 45.8739C675.708 45.2095 673.433 44.283 671.284 43.1124C669.838 42.3425 668.531 41.3423 667.414 40.1521C666.297 39.0201 665.602 37.5465 665.443 35.9729C665.463 35.6741 665.463 35.3742 665.443 35.0754C665.451 35.0488 665.457 35.0215 665.461 34.9938C665.567 33.9514 665.928 32.9502 666.514 32.0768C667.28 30.9432 668.251 29.9587 669.378 29.1725C670.898 28.0981 672.544 27.2086 674.28 26.5233C675.633 25.9552 677.018 25.4648 678.429 25.0546C678.736 24.9679 678.746 24.9551 678.687 24.7052C678.348 23.3693 678.081 22.0169 677.884 20.6536C677.755 19.8085 677.668 18.9574 677.626 18.1037C677.603 17.451 677.611 16.7982 677.626 16.148C677.641 15.1984 677.758 14.2532 677.975 13.3279C678.213 12.1751 678.678 11.0799 679.345 10.1049C680.18 8.8894 681.441 8.02276 682.885 7.67236C683.061 7.64874 683.233 7.60425 683.398 7.53979ZM697.218 45.6062C698.25 45.6393 699.282 45.5807 700.314 45.5526C700.804 45.5399 701.294 45.5297 701.782 45.4863C702.11 45.4557 702.44 45.4557 702.767 45.4226C702.842 45.418 702.914 45.395 702.977 45.3558C703.04 45.3166 703.092 45.2624 703.129 45.1982C703.459 44.6882 703.805 44.1783 704.137 43.6683C705.781 41.1353 707.278 38.5125 708.622 35.8123C708.677 35.7172 708.706 35.6095 708.706 35.4999C708.706 35.3903 708.677 35.2826 708.622 35.1876C707.511 32.9437 706.294 30.7568 704.971 28.6269C704.381 27.6732 703.768 26.7383 703.131 25.8221C703.051 25.7048 702.982 25.6028 702.809 25.5951C701.906 25.5518 701.003 25.46 700.1 25.4498C698.809 25.4498 697.519 25.3707 696.229 25.409C694.702 25.4523 693.177 25.488 691.655 25.5951C691.585 25.5924 691.516 25.6079 691.454 25.6402C691.393 25.6724 691.341 25.7202 691.304 25.7787C691.046 26.179 690.772 26.5692 690.512 26.9669C688.762 29.6221 687.179 32.3812 685.772 35.2284C685.722 35.3152 685.696 35.4131 685.696 35.5127C685.696 35.6123 685.722 35.7102 685.772 35.797C686.871 37.9949 688.065 40.1411 689.353 42.2353C689.978 43.2552 690.62 44.242 691.296 45.2186C691.33 45.2735 691.377 45.3198 691.433 45.3539C691.488 45.388 691.551 45.4088 691.616 45.4149C691.962 45.4659 692.31 45.4659 692.648 45.4863C693.616 45.545 694.586 45.5781 695.556 45.6036C696.123 45.6189 696.671 45.6062 697.218 45.6062ZM684.557 10.2171C683.926 10.1867 683.299 10.3315 682.747 10.6353C682.195 10.9391 681.741 11.3896 681.435 11.9357C681.118 12.4667 680.884 13.0418 680.741 13.6415C680.45 14.8554 680.329 16.1027 680.379 17.349C680.405 18.3164 680.485 19.2816 680.617 20.2405C680.795 21.5123 681.042 22.7737 681.357 24.0193C681.422 24.2743 681.437 24.2743 681.708 24.231C682.454 24.078 683.202 23.925 683.953 23.7899C685.852 23.4507 687.761 23.1881 689.686 23.0249C689.751 23.0233 689.815 23.006 689.872 22.9744C689.93 22.9429 689.978 22.8981 690.014 22.8438C690.15 22.645 690.3 22.4512 690.442 22.2549C691.879 20.2931 693.424 18.4111 695.071 16.6172C695.277 16.3902 695.28 16.3928 695.058 16.1761L694.978 16.0996C693.761 14.9305 692.455 13.8556 691.072 12.8842C689.837 11.9918 688.489 11.2648 687.062 10.722C686.263 10.4108 685.415 10.24 684.557 10.2171ZM714.063 53.939C714.075 53.3788 714.05 52.8185 713.991 52.2612C713.922 51.4274 713.811 50.5987 713.666 49.7726C713.498 48.819 713.302 47.873 713.057 46.9347C713 46.7256 712.998 46.723 712.799 46.7664L711.749 46.9831C710.394 47.2636 709.03 47.493 707.657 47.669C706.764 47.7888 705.866 47.9036 704.966 47.9724C704.548 48.0056 704.548 48.0158 704.29 48.3651L704.107 48.6201C702.85 50.331 701.526 51.9935 700.112 53.5769C699.836 53.8829 699.563 54.1914 699.282 54.4923C699.194 54.5892 699.184 54.6632 699.282 54.7473C699.326 54.783 699.364 54.8264 699.403 54.8646C700.626 56.0405 701.937 57.123 703.325 58.1029C704.592 59.0261 705.981 59.7741 707.453 60.3263C708.384 60.6915 709.387 60.8432 710.387 60.77C711.204 60.7028 711.964 60.3287 712.51 59.7246C713.07 59.0782 713.466 58.3089 713.664 57.4808C713.96 56.3239 714.095 55.1321 714.063 53.939ZM680.346 54.0665C680.361 54.2527 680.385 54.4362 680.385 54.6224C680.388 55.2835 680.45 55.943 680.57 56.5934C680.703 57.4808 681.004 58.3354 681.458 59.1126C681.696 59.5277 682.023 59.8865 682.416 60.1639C682.809 60.4414 683.259 60.6308 683.734 60.719C684.478 60.8414 685.241 60.8058 685.971 60.6145C687.198 60.3064 688.37 59.8164 689.449 59.1611C691.505 57.9241 693.41 56.4558 695.125 54.7856C695.3 54.6224 695.295 54.6198 695.125 54.4362C694.124 53.3704 693.18 52.2561 692.264 51.1215C691.49 50.1653 690.757 49.1861 690.037 48.1943C690.003 48.1395 689.956 48.0935 689.9 48.0603C689.845 48.027 689.782 48.0074 689.717 48.003C689.258 47.9648 688.801 47.8985 688.342 47.8526C687.294 47.7506 686.249 47.5976 685.209 47.4344C684.017 47.2483 682.833 47.029 681.657 46.7638C681.442 46.7154 681.424 46.7307 681.37 46.9474C681.058 48.2351 680.792 49.5278 680.612 50.8384C680.457 51.9119 680.392 52.9879 680.346 54.0665ZM714.069 16.7447C714.072 16.0021 714.01 15.2607 713.883 14.5289C713.765 13.688 713.504 12.8731 713.109 12.1193C712.42 10.8724 711.372 10.2196 709.925 10.2196C708.915 10.2435 707.919 10.4627 706.994 10.8648C705.568 11.4633 704.223 12.2342 702.989 13.1596C701.762 14.0572 700.593 15.0298 699.488 16.0715C699.406 16.148 699.325 16.227 699.246 16.3061C699.231 16.3175 699.218 16.3322 699.21 16.349C699.202 16.3658 699.197 16.3843 699.197 16.403C699.197 16.4217 699.202 16.4402 699.21 16.457C699.218 16.4738 699.231 16.4884 699.246 16.4999C699.289 16.5483 699.333 16.5968 699.38 16.6427C700.007 17.3005 700.6 17.989 701.186 18.6825C702.244 19.9345 703.25 21.2171 704.205 22.5532C704.296 22.7059 704.425 22.8331 704.58 22.9224C704.735 23.0117 704.91 23.0601 705.09 23.0631C705.962 23.1192 706.829 23.2467 707.696 23.364C708.919 23.534 710.135 23.732 711.344 23.9581C711.824 24.0525 712.301 24.1596 712.781 24.2565C712.995 24.2973 713.016 24.282 713.075 24.0729L713.111 23.9377C713.369 22.8872 713.589 21.8316 713.751 20.7632C713.96 19.4336 714.066 18.0902 714.069 16.7447ZM682.557 35.5446C682.561 35.4561 682.541 35.3683 682.5 35.2896C682.402 35.0779 682.304 34.8663 682.209 34.6547C681.218 32.4708 680.35 30.2346 679.608 27.9563C679.487 27.5865 679.487 27.5865 679.115 27.7013C677.494 28.1622 675.908 28.7374 674.37 29.4224C673.121 29.974 671.937 30.658 670.838 31.4623C670.041 32.0304 669.353 32.7361 668.81 33.5455C668.01 34.7924 667.969 36.0571 668.735 37.3371C669.169 38.0272 669.716 38.6415 670.353 39.1551C671.258 39.9025 672.247 40.5434 673.302 41.0649C675.204 42.0134 677.196 42.7751 679.249 43.3394C679.479 43.4057 679.507 43.398 679.579 43.138C680.398 40.6101 681.369 38.1332 682.487 35.7205C682.521 35.6567 682.557 35.5854 682.557 35.5446ZM726.234 35.4451C726.238 35.1049 726.179 34.7669 726.059 34.4481C725.822 33.8068 725.456 33.2196 724.983 32.7219C723.949 31.6456 722.735 30.7536 721.394 30.0854C720.136 29.4252 718.829 28.8609 717.485 28.3974C716.721 28.1288 715.947 27.8849 715.163 27.6656C714.93 27.5993 714.93 27.6018 714.85 27.8339L714.827 27.9155C714.296 29.5473 713.701 31.1563 713.044 32.7423C712.698 33.5786 712.337 34.4073 711.953 35.2258C711.907 35.3104 711.882 35.405 711.882 35.5012C711.882 35.5974 711.907 35.692 711.953 35.7766C712.226 36.3478 712.469 36.9317 712.727 37.513C713.52 39.3489 714.223 41.2188 714.835 43.1226C714.928 43.4108 714.923 43.4108 715.225 43.3343L715.361 43.296C716.755 42.8967 718.123 42.4147 719.459 41.8528C720.711 41.3337 721.909 40.694 723.035 39.943C723.923 39.3744 724.708 38.6624 725.357 37.8369C725.918 37.1622 726.228 36.3182 726.237 35.4451H726.234ZM700.848 22.7419C700.844 22.6628 700.81 22.5882 700.752 22.5328C700.528 22.2472 700.303 21.9591 700.076 21.6735C699.217 20.6026 698.33 19.552 697.39 18.5448C697.212 18.351 697.197 18.3561 697.024 18.5448C696.658 18.9579 696.289 19.3684 695.925 19.784C695.151 20.679 694.395 21.5995 693.667 22.5404C693.629 22.5914 693.546 22.6399 693.603 22.7393C696.01 22.6501 698.42 22.6526 700.85 22.7419H700.848ZM710.211 32.2272L710.278 32.2145C710.358 32.0258 710.438 31.8397 710.516 31.651C711.121 30.1976 711.668 28.7221 712.157 27.2245C712.17 27.1811 712.183 27.1352 712.193 27.0893C712.219 26.9822 712.193 26.9057 712.069 26.8879L711.986 26.8726C710.438 26.5258 708.867 26.2683 707.291 26.0541C707.062 25.9875 706.82 25.9753 706.586 26.0184C707.892 28.0481 709.101 30.1177 710.214 32.2272H710.211ZM710.278 38.7854H710.209C709.115 40.9068 707.886 42.9493 706.614 44.9764C706.612 44.9847 706.612 44.9935 706.614 45.0019C706.619 45.0152 706.625 45.028 706.633 45.0401C706.793 45.0248 706.96 45.0146 707.128 44.9917C708.356 44.8183 709.582 44.6296 710.799 44.3899C711.233 44.3032 711.664 44.2063 712.09 44.1196C712.201 44.0992 712.232 44.0482 712.193 43.9462C712.172 43.8927 712.157 43.8391 712.139 43.7856C711.754 42.5897 711.323 41.4066 710.861 40.2388C710.681 39.7467 710.48 39.2673 710.281 38.7854H710.278ZM684.219 38.7854C684.13 38.8461 684.068 38.9369 684.043 39.0404C683.401 40.583 682.807 42.1435 682.291 43.7321C682.268 43.8009 682.245 43.8723 682.224 43.9437C682.217 43.9609 682.214 43.9796 682.215 43.9982C682.216 44.0169 682.222 44.0349 682.232 44.0509C682.242 44.0669 682.255 44.0803 682.271 44.09C682.288 44.0998 682.306 44.1055 682.325 44.1069C682.371 44.1069 682.415 44.1349 682.462 44.1451C684.082 44.4894 685.715 44.7647 687.364 44.9815C687.532 45.0256 687.707 45.0369 687.88 45.0146C686.546 42.9799 685.346 40.9094 684.219 38.7905V38.7854ZM687.849 26.0107C687.734 25.9795 687.613 25.9795 687.498 26.0107C686.156 26.1994 684.815 26.3958 683.486 26.666C683.117 26.74 682.748 26.8114 682.379 26.893C682.206 26.9312 682.198 26.9567 682.242 27.125C682.242 27.1607 682.265 27.1964 682.276 27.2321C682.807 28.8742 683.421 30.4857 684.082 32.0768C684.105 32.1329 684.11 32.2094 684.219 32.2221C685.333 30.1109 686.538 28.0506 687.849 26.0159V26.0107ZM693.585 48.258C693.561 48.3727 693.641 48.4212 693.69 48.4849C694.24 49.2065 694.813 49.9077 695.399 50.6013C695.927 51.2311 696.469 51.8507 697.032 52.4525C697.212 52.6463 697.238 52.6437 697.403 52.4525C697.881 51.9145 698.363 51.379 698.833 50.8333C699.493 50.0684 700.123 49.2805 700.742 48.4824C700.786 48.4237 700.874 48.3727 700.832 48.258C698.417 48.3753 696 48.3778 693.585 48.258Z" fill="white"/>
<path d="M702.871 35.5088C702.92 38.5482 700.321 41.1032 697.207 41.1006C696.083 41.1031 694.984 40.7758 694.048 40.1601C693.113 39.5445 692.383 38.6682 691.952 37.6424C691.521 36.6166 691.408 35.4873 691.627 34.3978C691.846 33.3084 692.387 32.3076 693.182 31.5226C693.978 30.7375 694.991 30.2034 696.093 29.9879C697.196 29.7724 698.338 29.8853 699.376 30.3123C700.414 30.7392 701.3 31.461 701.922 32.3861C702.544 33.3112 702.874 34.398 702.871 35.5088Z" fill="white"/>
<path d="M453.671 35.3049C453.969 35.105 454.255 34.8862 454.525 34.6496C461.149 28.1067 467.767 21.5554 474.379 14.9955C474.579 14.7768 474.825 14.6044 475.101 14.4906C475.376 14.3769 475.673 14.3247 475.971 14.3376C479.733 14.3682 483.497 14.3529 487.202 14.3529L459.654 41.4347C458.072 39.8691 456.3 38.1199 454.522 36.3631C454.253 36.1265 453.969 35.9076 453.671 35.7078V35.3049Z" fill="white"/>
<path d="M606.545 30.4704C606.176 31.2711 605.805 32.0743 605.413 32.9157C604.946 32.7704 604.481 32.5868 603.999 32.4797C602.138 32.0615 600.547 32.8877 600.051 34.7108C599.708 36.0039 599.516 37.3318 599.481 38.6681C599.398 41.45 599.455 44.2344 599.455 47.0188V48.1509H596.359V29.5372H599.138V32.2145L599.832 31.1946C601.272 29.0655 603.054 28.5377 605.457 29.5321C605.831 29.6877 606.184 29.8891 606.545 30.0676V30.4704Z" fill="white"/>
<path d="M487.422 32.676L475.37 44.543L487.497 56.3436L487.316 56.6623H485.541C482.318 56.6623 479.09 56.6623 475.868 56.6444C475.445 56.6531 475.032 56.5171 474.699 56.2594C470.836 52.4857 466.993 48.6932 463.171 44.8821C463.082 44.7704 463.001 44.6528 462.928 44.5302C464.871 42.6331 466.827 40.7335 468.775 38.8237C470.679 36.9598 472.568 35.078 474.487 33.2141C474.752 32.9296 475.107 32.744 475.494 32.6888C479.369 32.6633 483.268 32.676 487.422 32.676Z" fill="white"/>
<path d="M591.516 39.711H577.464C577.186 42.4877 578.889 45.1472 581.456 45.7923C584.106 46.4603 586.557 45.856 588.058 42.197L591.227 42.5872C590.672 45.8331 587.72 48.3931 584.211 48.5665C582.86 48.6533 581.504 48.552 580.181 48.2656C577.364 47.6078 575.483 45.7745 574.598 43.0691C573.665 40.3075 573.704 37.3157 574.706 34.5781C576.076 30.7789 579.652 28.6472 583.76 29.096C587.868 29.5448 590.726 32.3776 591.242 36.4905C591.387 37.5105 591.423 38.5406 591.516 39.711ZM577.583 37.0234H587.904C587.96 36.3629 587.881 35.698 587.671 35.0683C587.461 34.4387 587.125 33.8573 586.683 33.3589C586.241 32.8605 585.702 32.4553 585.097 32.1675C584.493 31.8798 583.836 31.7154 583.166 31.6841C579.993 31.5515 577.544 33.8616 577.586 37.0234H577.583Z" fill="white"/>
<path d="M503.478 25.4269V33.4385H515.641V36.4728H503.494V48.1332H500.034V22.4539H517.579V25.4269H503.478Z" fill="white"/>
<path d="M543.765 29.5117H546.931V48.1484H544.162V45.5986C543.889 45.8536 543.729 45.976 543.6 46.1264C542.471 47.4181 540.92 48.2783 539.216 48.5577C537.512 48.8372 535.763 48.5183 534.272 47.6563C533.52 47.2518 532.892 46.6555 532.453 45.9294C532.014 45.2033 531.779 44.3741 531.775 43.5281C531.643 38.9384 531.677 34.3487 531.648 29.759C531.648 29.7004 531.7 29.6392 531.751 29.5296H534.819C534.819 30.9116 534.819 32.2452 534.819 33.5762C534.845 36.46 534.853 39.3439 534.92 42.2277C535 45.5884 537.952 46.3993 540.338 45.6598C542.624 44.9459 543.693 43.3471 543.754 40.4352C543.806 37.1816 543.773 33.9255 543.775 30.6719L543.765 29.5117Z" fill="white"/>
<path d="M553.549 31.9391H551.245V29.4963H553.549C553.549 28.1016 553.515 26.8037 553.572 25.5084C553.587 25.3249 553.639 25.1462 553.725 24.9828C553.811 24.8195 553.929 24.6748 554.072 24.5573C554.87 23.9989 555.737 23.5374 556.707 22.9688V29.4377H559.88V31.9391H556.885C556.826 32.0924 556.784 32.2513 556.758 32.4133C556.758 36.1335 556.735 39.8563 556.776 43.5765C556.795 45.165 557.388 45.6163 559.026 45.4787C559.284 45.4583 559.56 45.4226 559.919 45.3818C560.017 45.8637 560.115 46.3048 560.193 46.751C560.27 47.1972 560.314 47.6129 560.391 48.1534C558.642 48.5231 556.926 48.7424 555.264 47.8984C554.846 47.7052 554.486 47.407 554.22 47.0335C553.954 46.6599 553.792 46.224 553.75 45.7693C553.654 44.803 553.564 43.834 553.559 42.8651C553.531 39.2647 553.549 35.6797 553.549 31.9391Z" fill="white"/>
<path d="M567.763 29.466H570.952V31.9214H567.802V36.7661C567.802 38.9794 567.802 41.1952 567.802 43.3957C567.814 45.1092 568.369 45.5911 570.124 45.4355L570.975 45.3667C571.076 45.8486 571.182 46.2999 571.259 46.7538C571.336 47.2076 571.38 47.608 571.447 48.1179C569.832 48.4851 568.23 48.6279 566.664 48.0236C565.544 47.5825 564.809 46.7487 564.767 45.5095C564.669 42.5619 564.623 39.6143 564.576 36.6641C564.553 35.1342 564.576 33.589 564.576 31.9495H562.321V29.466H564.569C564.569 28.0788 564.52 26.8116 564.597 25.5494C564.655 25.1226 564.88 24.7354 565.224 24.4708C565.977 23.9226 566.824 23.4942 567.76 22.9409L567.763 29.466Z" fill="white"/>
<path d="M525.745 48.1765H522.649V22.4385H525.745V48.1765Z" fill="white"/>
</svg>
